HIERARCHY
ROOT Hips
{
  OFFSET 0.000000 95.000000 0.000000
  CHANNELS 6 Xposition Yposition Zposition Zrotation Xrotation Yrotation
  JOINT Spine
  {
    OFFSET 0.000000 10.000000 0.000000
    CHANNELS 3 Zrotation Xrotation Yrotation
    JOINT Spine1
    {
      OFFSET 0.000000 12.000000 0.000000
      CHANNELS 3 Zrotation Xrotation Yrotation
      JOINT Spine2
      {
        OFFSET 0.000000 12.000000 0.000000
        CHANNELS 3 Zrotation Xrotation Yrotation
        JOINT Neck
        {
          OFFSET 0.000000 10.000000 0.000000
          CHANNELS 3 Zrotation Xrotation Yrotation
          JOINT Head
          {
            OFFSET 0.000000 8.000000 0.000000
            CHANNELS 3 Zrotation Xrotation Yrotation
            End Site
            {
              OFFSET 0.000000 10.000000 0.000000
            }
          }
        }
        JOINT LeftShoulder
        {
          OFFSET 6.000000 8.000000 0.000000
          CHANNELS 3 Zrotation Xrotation Yrotation
          JOINT LeftArm
          {
            OFFSET 12.000000 0.000000 0.000000
            CHANNELS 3 Zrotation Xrotation Yrotation
            JOINT LeftForeArm
            {
              OFFSET 24.000000 0.000000 0.000000
              CHANNELS 3 Zrotation Xrotation Yrotation
              JOINT LeftHand
              {
                OFFSET 22.000000 0.000000 0.000000
                CHANNELS 3 Zrotation Xrotation Yrotation
                JOINT LeftHandThumb1
                {
                  OFFSET 1.800000 -1.400000 0.500000
                  CHANNELS 3 Zrotation Xrotation Yrotation
                  JOINT LeftHandThumb2
                  {
                    OFFSET 2.400000 0.000000 0.000000
                    CHANNELS 3 Zrotation Xrotation Yrotation
                    JOINT LeftHandThumb3
                    {
                      OFFSET 1.900000 0.000000 0.000000
                      CHANNELS 3 Zrotation Xrotation Yrotation
                      End Site
                      {
                        OFFSET 1.600000 0.000000 0.000000
                      }
                    }
                  }
                }
                JOINT LeftHandIndex1
                {
                  OFFSET 6.600000 1.200000 0.300000
                  CHANNELS 3 Zrotation Xrotation Yrotation
                  JOINT LeftHandIndex2
                  {
                    OFFSET 2.000000 0.000000 0.000000
                    CHANNELS 3 Zrotation Xrotation Yrotation
                    JOINT LeftHandIndex3
                    {
                      OFFSET 1.200000 0.000000 0.000000
                      CHANNELS 3 Zrotation Xrotation Yrotation
                      End Site
                      {
                        OFFSET 1.000000 0.000000 0.000000
                      }
                    }
                  }
                }
                JOINT LeftHandMiddle1
                {
                  OFFSET 7.200000 0.000000 0.300000
                  CHANNELS 3 Zrotation Xrotation Yrotation
                  JOINT LeftHandMiddle2
                  {
                    OFFSET 3.000000 0.000000 0.000000
                    CHANNELS 3 Zrotation Xrotation Yrotation
                    JOINT LeftHandMiddle3
                    {
                      OFFSET 2.000000 0.000000 0.000000
                      CHANNELS 3 Zrotation Xrotation Yrotation
                      End Site
                      {
                        OFFSET 1.600000 0.000000 0.000000
                      }
                    }
                  }
                }
                JOINT LeftHandRing1
                {
                  OFFSET 7.100000 -1.000000 0.400000
                  CHANNELS 3 Zrotation Xrotation Yrotation
                  JOINT LeftHandRing2
                  {
                    OFFSET 2.600000 0.000000 0.000000
                    CHANNELS 3 Zrotation Xrotation Yrotation
                    JOINT LeftHandRing3
                    {
                      OFFSET 1.600000 0.000000 0.000000
                      CHANNELS 3 Zrotation Xrotation Yrotation
                      End Site
                      {
                        OFFSET 1.300000 0.000000 0.000000
                      }
                    }
                  }
                }
                JOINT LeftHandPinky1
                {
                  OFFSET 6.500000 -2.000000 0.500000
                  CHANNELS 3 Zrotation Xrotation Yrotation
                  JOINT LeftHandPinky2
                  {
                    OFFSET 1.900000 0.000000 0.000000
                    CHANNELS 3 Zrotation Xrotation Yrotation
                    JOINT LeftHandPinky3
                    {
                      OFFSET 1.400000 0.000000 0.000000
                      CHANNELS 3 Zrotation Xrotation Yrotation
                      End Site
                      {
                        OFFSET 1.300000 0.000000 0.000000
                      }
                    }
                  }
                }
              }
            }
          }
        }
        JOINT RightShoulder
        {
          OFFSET -6.000000 8.000000 0.000000
          CHANNELS 3 Zrotation Xrotation Yrotation
          JOINT RightArm
          {
            OFFSET -12.000000 0.000000 0.000000
            CHANNELS 3 Zrotation Xrotation Yrotation
            JOINT RightForeArm
            {
              OFFSET -24.000000 0.000000 0.000000
              CHANNELS 3 Zrotation Xrotation Yrotation
              JOINT RightHand
              {
                OFFSET -22.000000 0.000000 0.000000
                CHANNELS 3 Zrotation Xrotation Yrotation
                JOINT RightHandThumb1
                {
                  OFFSET -1.800000 -1.400000 0.500000
                  CHANNELS 3 Zrotation Xrotation Yrotation
                  JOINT RightHandThumb2
                  {
                    OFFSET -2.400000 0.000000 0.000000
                    CHANNELS 3 Zrotation Xrotation Yrotation
                    JOINT RightHandThumb3
                    {
                      OFFSET -1.900000 0.000000 0.000000
                      CHANNELS 3 Zrotation Xrotation Yrotation
                      End Site
                      {
                        OFFSET -1.600000 0.000000 0.000000
                      }
                    }
                  }
                }
                JOINT RightHandIndex1
                {
                  OFFSET -6.600000 1.200000 0.300000
                  CHANNELS 3 Zrotation Xrotation Yrotation
                  JOINT RightHandIndex2
                  {
                    OFFSET -2.000000 0.000000 0.000000
                    CHANNELS 3 Zrotation Xrotation Yrotation
                    JOINT RightHandIndex3
                    {
                      OFFSET -1.200000 0.000000 0.000000
                      CHANNELS 3 Zrotation Xrotation Yrotation
                      End Site
                      {
                        OFFSET -1.000000 0.000000 0.000000
                      }
                    }
                  }
                }
                JOINT RightHandMiddle1
                {
                  OFFSET -7.200000 0.000000 0.300000
                  CHANNELS 3 Zrotation Xrotation Yrotation
                  JOINT RightHandMiddle2
                  {
                    OFFSET -3.000000 0.000000 0.000000
                    CHANNELS 3 Zrotation Xrotation Yrotation
                    JOINT RightHandMiddle3
                    {
                      OFFSET -2.000000 0.000000 0.000000
                      CHANNELS 3 Zrotation Xrotation Yrotation
                      End Site
                      {
                        OFFSET -1.600000 0.000000 0.000000
                      }
                    }
                  }
                }
                JOINT RightHandRing1
                {
                  OFFSET -7.100000 -1.000000 0.400000
                  CHANNELS 3 Zrotation Xrotation Yrotation
                  JOINT RightHandRing2
                  {
                    OFFSET -2.600000 0.000000 0.000000
                    CHANNELS 3 Zrotation Xrotation Yrotation
                    JOINT RightHandRing3
                    {
                      OFFSET -1.600000 0.000000 0.000000
                      CHANNELS 3 Zrotation Xrotation Yrotation
                      End Site
                      {
                        OFFSET -1.300000 0.000000 0.000000
                      }
                    }
                  }
                }
                JOINT RightHandPinky1
                {
                  OFFSET -6.500000 -2.000000 0.500000
                  CHANNELS 3 Zrotation Xrotation Yrotation
                  JOINT RightHandPinky2
                  {
                    OFFSET -1.900000 0.000000 0.000000
                    CHANNELS 3 Zrotation Xrotation Yrotation
                    JOINT RightHandPinky3
                    {
                      OFFSET -1.400000 0.000000 0.000000
                      CHANNELS 3 Zrotation Xrotation Yrotation
                      End Site
                      {
                        OFFSET -1.300000 0.000000 0.000000
                      }
                    }
                  }
                }
              }
            }
          }
        }
      }
    }
  }
  JOINT LeftUpLeg
  {
    OFFSET 10.000000 -5.000000 0.000000
    CHANNELS 3 Zrotation Xrotation Yrotation
    JOINT LeftLeg
    {
      OFFSET 0.000000 -42.000000 0.000000
      CHANNELS 3 Zrotation Xrotation Yrotation
      JOINT LeftFoot
      {
        OFFSET 0.000000 -42.000000 4.000000
        CHANNELS 3 Zrotation Xrotation Yrotation
        End Site
        {
          OFFSET 0.000000 0.000000 12.000000
        }
      }
    }
  }
  JOINT RightUpLeg
  {
    OFFSET -10.000000 -5.000000 0.000000
    CHANNELS 3 Zrotation Xrotation Yrotation
    JOINT RightLeg
    {
      OFFSET 0.000000 -42.000000 0.000000
      CHANNELS 3 Zrotation Xrotation Yrotation
      JOINT RightFoot
      {
        OFFSET 0.000000 -42.000000 4.000000
        CHANNELS 3 Zrotation Xrotation Yrotation
        End Site
        {
          OFFSET 0.000000 0.000000 12.000000
        }
      }
    }
  }
}
MOTION
Frames: 6
Frame Time: 0.033333
0.0000 95.0000 0.0000 0.0000 0.0000 0.0000 0.0000 0.0000 0.0000 0.0000 0.0000 0.0000 0.0000 0.0000 0.0000 0.0000 0.0000 0.0000 0.0000 0.0000 0.0000 0.0000 0.0000 0.0000 -78.0684 10.9253 13.4539 -3.2597 -3.3601 5.0572 -163.9496 19.5022 168.7498 51.3042 -10.8112 1.4482 7.2205 0.0000 0.0000 10.7344 0.0000 0.0000 -4.6467 -0.1766 2.7537 4.0601 0.0000 0.0000 2.1529 0.0000 0.0000 6.2232 -0.3437 1.5440 5.4229 0.0000 0.0000 1.3053 0.0000 0.0000 14.0557 -0.7579 1.4408 6.4148 0.0000 0.0000 2.4750 0.0000 0.0000 22.2278 -1.5135 1.1481 6.1590 0.0000 0.0000 2.5106 0.0000 0.0000 0.0000 0.0000 0.0000 88.4958 1.3589 -1.3950 -3.4734 5.6814 5.5765 161.3230 13.7177 -174.8253 -59.5314 -12.2554 -2.4414 21.1462 0.0000 0.0000 9.6099 0.0000 0.0000 13.1096 0.6509 0.9904 157.9759 0.0000 0.0000 10.4590 0.0000 0.0000 3.2617 0.0306 3.6964 172.2646 0.0000 0.0000 2.1150 0.0000 0.0000 -5.6737 -0.6256 3.4064 173.9298 0.0000 0.0000 5.3816 0.0000 0.0000 -15.2770 -1.4406 1.8421 171.8790 0.0000 0.0000 5.9719 0.0000 0.0000 0.0000 0.0000 0.0000 0.0000 0.0000 0.0000 0.0000 0.0000 0.0000 0.0000 0.0000 0.0000 0.0000 0.0000 0.0000 0.0000 0.0000 0.0000
0.0000 95.0000 0.0000 0.0000 0.0000 0.0000 0.0000 0.0000 0.0000 0.0000 0.0000 0.0000 0.0000 0.0000 0.0000 0.0000 0.0000 0.0000 0.0000 0.0000 0.0000 0.0000 0.0000 0.0000 -78.0257 11.2807 13.9007 -3.4435 -3.3997 5.1906 -164.0933 19.0432 168.1508 51.3042 -10.8112 1.4482 7.2205 0.0000 0.0000 10.7344 0.0000 0.0000 -4.6467 -0.1766 2.7537 4.0601 0.0000 0.0000 2.1529 0.0000 0.0000 6.2232 -0.3437 1.5440 5.4229 0.0000 0.0000 1.3053 0.0000 0.0000 14.0557 -0.7579 1.4408 6.4148 0.0000 0.0000 2.4750 0.0000 0.0000 22.2278 -1.5135 1.1481 6.1590 0.0000 0.0000 2.5106 0.0000 0.0000 0.0000 0.0000 0.0000 88.3817 0.7548 -0.7764 -3.3629 5.8895 5.7607 161.3522 14.4886 -175.6599 -59.5314 -12.2554 -2.4414 21.1462 0.0000 0.0000 9.6099 0.0000 0.0000 13.1096 0.6509 0.9904 157.9759 0.0000 0.0000 10.4590 0.0000 0.0000 3.2617 0.0306 3.6964 172.2646 0.0000 0.0000 2.1150 0.0000 0.0000 -5.6737 -0.6256 3.4064 173.9298 0.0000 0.0000 5.3816 0.0000 0.0000 -15.2770 -1.4406 1.8421 171.8790 0.0000 0.0000 5.9719 0.0000 0.0000 0.0000 0.0000 0.0000 0.0000 0.0000 0.0000 0.0000 0.0000 0.0000 0.0000 0.0000 0.0000 0.0000 0.0000 0.0000 0.0000 0.0000 0.0000
0.0000 95.0000 0.0000 0.0000 0.0000 0.0000 0.0000 0.0000 0.0000 0.0000 0.0000 0.0000 0.0000 0.0000 0.0000 0.0000 0.0000 0.0000 0.0000 0.0000 0.0000 0.0000 0.0000 0.0000 -77.9005 11.5657 14.2822 -3.9365 -3.2757 5.2316 -164.5098 18.7432 167.6329 51.3042 -10.8112 1.4482 7.2205 0.0000 0.0000 10.7344 0.0000 0.0000 -4.6467 -0.1766 2.7537 4.0601 0.0000 0.0000 2.1529 0.0000 0.0000 6.2232 -0.3437 1.5440 5.4229 0.0000 0.0000 1.3053 0.0000 0.0000 14.0557 -0.7579 1.4408 6.4148 0.0000 0.0000 2.4750 0.0000 0.0000 22.2278 -1.5135 1.1481 6.1590 0.0000 0.0000 2.5106 0.0000 0.0000 0.0000 0.0000 0.0000 88.1723 0.6315 -0.6520 -3.1660 6.1157 6.0129 161.3378 14.8375 -176.0403 -59.5314 -12.2554 -2.4414 21.1462 0.0000 0.0000 9.6099 0.0000 0.0000 13.1096 0.6509 0.9904 157.9759 0.0000 0.0000 10.4590 0.0000 0.0000 3.2617 0.0306 3.6964 172.2646 0.0000 0.0000 2.1150 0.0000 0.0000 -5.6737 -0.6256 3.4064 173.9298 0.0000 0.0000 5.3816 0.0000 0.0000 -15.2770 -1.4406 1.8421 171.8790 0.0000 0.0000 5.9719 0.0000 0.0000 0.0000 0.0000 0.0000 0.0000 0.0000 0.0000 0.0000 0.0000 0.0000 0.0000 0.0000 0.0000 0.0000 0.0000 0.0000 0.0000 0.0000 0.0000
0.0000 95.0000 0.0000 0.0000 0.0000 0.0000 0.0000 0.0000 0.0000 0.0000 0.0000 0.0000 0.0000 0.0000 0.0000 0.0000 0.0000 0.0000 0.0000 0.0000 0.0000 0.0000 0.0000 0.0000 -78.0310 11.6260 14.3234 -3.9660 -3.1085 5.0212 -164.7300 18.8633 167.6860 51.3042 -10.8112 1.4482 7.2205 0.0000 0.0000 10.7344 0.0000 0.0000 -4.6467 -0.1766 2.7537 4.0601 0.0000 0.0000 2.1529 0.0000 0.0000 6.2232 -0.3437 1.5440 5.4229 0.0000 0.0000 1.3053 0.0000 0.0000 14.0557 -0.7579 1.4408 6.4148 0.0000 0.0000 2.4750 0.0000 0.0000 22.2278 -1.5135 1.1481 6.1590 0.0000 0.0000 2.5106 0.0000 0.0000 0.0000 0.0000 0.0000 88.0733 0.5587 -0.5778 -3.1484 6.2532 6.1554 161.2522 15.0512 -176.2807 -59.5314 -12.2554 -2.4414 21.1462 0.0000 0.0000 9.6099 0.0000 0.0000 13.1096 0.6509 0.9904 157.9759 0.0000 0.0000 10.4590 0.0000 0.0000 3.2617 0.0306 3.6964 172.2646 0.0000 0.0000 2.1150 0.0000 0.0000 -5.6737 -0.6256 3.4064 173.9298 0.0000 0.0000 5.3816 0.0000 0.0000 -15.2770 -1.4406 1.8421 171.8790 0.0000 0.0000 5.9719 0.0000 0.0000 0.0000 0.0000 0.0000 0.0000 0.0000 0.0000 0.0000 0.0000 0.0000 0.0000 0.0000 0.0000 0.0000 0.0000 0.0000 0.0000 0.0000 0.0000
0.0000 95.0000 0.0000 0.0000 0.0000 0.0000 0.0000 0.0000 0.0000 0.0000 0.0000 0.0000 0.0000 0.0000 0.0000 0.0000 0.0000 0.0000 0.0000 0.0000 0.0000 0.0000 0.0000 0.0000 -77.9007 11.7284 14.4823 -4.4591 -3.2292 5.3670 -165.0547 18.4933 167.1296 51.3042 -10.8112 1.4482 7.2205 0.0000 0.0000 10.7344 0.0000 0.0000 -4.6467 -0.1766 2.7537 4.0601 0.0000 0.0000 2.1529 0.0000 0.0000 6.2232 -0.3437 1.5440 5.4229 0.0000 0.0000 1.3053 0.0000 0.0000 14.0557 -0.7579 1.4408 6.4148 0.0000 0.0000 2.4750 0.0000 0.0000 22.2278 -1.5135 1.1481 6.1590 0.0000 0.0000 2.5106 0.0000 0.0000 0.0000 0.0000 0.0000 88.0534 0.4622 -0.4782 -3.3072 6.2422 6.1252 161.0750 15.1453 -176.3997 -59.5314 -12.2554 -2.4414 21.1462 0.0000 0.0000 9.6099 0.0000 0.0000 13.1096 0.6509 0.9904 157.9759 0.0000 0.0000 10.4590 0.0000 0.0000 3.2617 0.0306 3.6964 172.2646 0.0000 0.0000 2.1150 0.0000 0.0000 -5.6737 -0.6256 3.4064 173.9298 0.0000 0.0000 5.3816 0.0000 0.0000 -15.2770 -1.4406 1.8421 171.8790 0.0000 0.0000 5.9719 0.0000 0.0000 0.0000 0.0000 0.0000 0.0000 0.0000 0.0000 0.0000 0.0000 0.0000 0.0000 0.0000 0.0000 0.0000 0.0000 0.0000 0.0000 0.0000 0.0000
0.0000 95.0000 0.0000 0.0000 0.0000 0.0000 0.0000 0.0000 0.0000 0.0000 0.0000 0.0000 0.0000 0.0000 0.0000 0.0000 0.0000 0.0000 0.0000 0.0000 0.0000 0.0000 0.0000 0.0000 -77.9723 11.5252 14.2144 -4.9882 -3.1140 5.3813 -165.6919 18.7131 167.1372 51.3042 -10.8112 1.4482 7.2205 0.0000 0.0000 10.7344 0.0000 0.0000 -4.6467 -0.1766 2.7537 4.0601 0.0000 0.0000 2.1529 0.0000 0.0000 6.2232 -0.3437 1.5440 5.4229 0.0000 0.0000 1.3053 0.0000 0.0000 14.0557 -0.7579 1.4408 6.4148 0.0000 0.0000 2.4750 0.0000 0.0000 22.2278 -1.5135 1.1481 6.1590 0.0000 0.0000 2.5106 0.0000 0.0000 0.0000 0.0000 0.0000 88.0728 0.0750 -0.0776 -3.4945 6.3020 6.1373 160.9202 15.5723 -176.8828 -59.5314 -12.2554 -2.4414 21.1462 0.0000 0.0000 9.6099 0.0000 0.0000 13.1096 0.6509 0.9904 157.9759 0.0000 0.0000 10.4590 0.0000 0.0000 3.2617 0.0306 3.6964 172.2646 0.0000 0.0000 2.1150 0.0000 0.0000 -5.6737 -0.6256 3.4064 173.9298 0.0000 0.0000 5.3816 0.0000 0.0000 -15.2770 -1.4406 1.8421 171.8790 0.0000 0.0000 5.9719 0.0000 0.0000 0.0000 0.0000 0.0000 0.0000 0.0000 0.0000 0.0000 0.0000 0.0000 0.0000 0.0000 0.0000 0.0000 0.0000 0.0000 0.0000 0.0000 0.0000
